<?xml version="1.0" encoding="UTF-8"?>
<svg id="Layer_1" data-name="Layer 1" xmlns="http://www.w3.org/2000/svg" viewBox="0 0 246.67 92.22">
  <defs>
    <style>
      .cls-1 {
        fill: #fff;
      }
    </style>
  </defs>
  <g>
    <path class="cls-1" d="M128.86,45.9c.03,2.6-.65,5.3-2.11,7.41l2.7,2.66-3.02,3.02-2.76-2.73c-1.72,1.1-3.9,1.69-6.47,1.69-8.09,0-11.67-5.88-11.7-11.8-.03-5.95,3.7-11.89,11.7-11.89s11.57,5.78,11.67,11.63Zm-19.14,.36c.06,3.74,2.53,7.73,7.47,7.73s7.6-4.32,7.44-8.22c-.16-3.67-2.08-7.64-7.44-7.64s-7.54,4.29-7.47,8.12Z"/>
    <path class="cls-1" d="M154.01,41.09l-7.41,9.88h-.84l-7.25-9.91v16.54h-4.29v-22.75h4.94l7.12,9.78,7.12-9.78h4.91v22.75h-4.29v-16.51Z"/>
    <path class="cls-1" d="M176.7,41.55h3.8v16.02h-3.74l-.19-2.34c-.91,1.88-3.41,2.79-5.2,2.83-4.74,.03-8.25-2.89-8.25-8.51s3.67-8.42,8.35-8.38c2.14,0,4.19,1.01,5.1,2.6l.13-2.21Zm-9.62,7.99c0,3.05,2.11,4.87,4.74,4.87,6.24,0,6.24-9.72,0-9.72-2.63,0-4.74,1.79-4.74,4.84Z"/>
    <path class="cls-1" d="M196.68,57.67h-4.45l-9.46-22.84h4.81l6.86,17.71,6.89-17.71h4.81l-9.46,22.84Z"/>
    <path class="cls-1" d="M223.33,49.58c0,4.61-3.15,8.35-8.35,8.35s-8.32-3.74-8.32-8.35,3.18-8.35,8.29-8.35,8.38,3.77,8.38,8.35Zm-12.71,0c0,2.44,1.46,4.71,4.35,4.71s4.35-2.27,4.35-4.71-1.69-4.74-4.35-4.74c-2.86,0-4.35,2.34-4.35,4.74Z"/>
  </g>
  <g>
    <rect class="cls-1" x="18.05" y="25.14" width="48.53" height="12.47" rx="6.23" ry="6.23" transform="translate(-9.79 39.11) rotate(-45)"/>
    <rect class="cls-1" x="47.52" y="54.61" width="48.53" height="12.47" rx="6.23" ry="6.23" transform="translate(-22 68.58) rotate(-45)"/>
    <rect class="cls-1" x="19.58" y="57.07" width="40.55" height="12.47" rx="6.23" ry="6.23" transform="translate(-33.09 46.72) rotate(-45)"/>
    <rect class="cls-1" x="53.93" y="22.72" width="40.55" height="12.47" rx="6.23" ry="6.23" transform="translate(1.26 60.95) rotate(-45)"/>
  </g>
</svg>